<svg class="svg-icon" style="width: 1em; height: 1em;vertical-align: middle;fill: currentColor;overflow: hidden;" viewBox="0 0 1024 1024" version="1.1" xmlns="http://www.w3.org/2000/svg"><path d="M972.8 494.933333v375.466667l-136.533333 136.533333H187.733333l-136.533333-136.533333V494.933333z" fill="#AD1457" /><path d="M921.6 494.933333v512H187.733333l-136.533333-136.533333V494.933333z" fill="#E91E63" /><path d="M187.733333 955.733333v51.2H85.333333a34.235733 34.235733 0 0 1-34.133333-34.133333v-102.4h51.2a17.066667 17.066667 0 0 1 17.066667 17.066667v34.133333a17.066667 17.066667 0 0 0 17.066666 17.066667h34.133334a17.066667 17.066667 0 0 1 17.066666 17.066666z" fill="#FFEB3A" /><path d="M972.8 870.4v102.4a34.235733 34.235733 0 0 1-34.133333 34.133333h-102.4v-51.2a17.066667 17.066667 0 0 1 17.066666-17.066666h34.133334a17.066667 17.066667 0 0 0 17.066666-17.066667v-34.133333a17.066667 17.066667 0 0 1 17.066667-17.066667h51.2z" fill="#FDD834" /><path d="M921.6 870.4v102.4a34.235733 34.235733 0 0 1-34.133333 34.133333h-51.2v-51.2a17.066667 17.066667 0 0 1 17.066666-17.066666h34.133334a17.066667 17.066667 0 0 0 17.066666-17.066667v-34.133333a17.066667 17.066667 0 0 1 17.066667-17.066667z" fill="#FFEB3A" /><path d="M1006.933333 221.866667v290.133333a17.066667 17.066667 0 0 1-17.066666 17.066667H34.133333a17.066667 17.066667 0 0 1-17.066666-17.066667V221.866667a68.266667 68.266667 0 0 1 68.266666-68.266667h853.333334a68.266667 68.266667 0 0 1 68.266666 68.266667z" fill="#BB193B" /><path d="M955.733333 221.866667v290.133333a17.066667 17.066667 0 0 1-17.066666 17.066667H34.133333a17.066667 17.066667 0 0 1-17.066666-17.066667V221.866667a68.266667 68.266667 0 0 1 68.266666-68.266667h802.133334a68.266667 68.266667 0 0 1 68.266666 68.266667z" fill="#EF314C" /><path d="M204.8 358.4h136.533333v392.533333h-136.533333zM341.333333 750.933333v73.898667a16.861867 16.861867 0 0 1-2.56 9.045333l-51.2 81.749334a17.220267 17.220267 0 0 1-29.013333 0l-16.384-26.282667-34.816-55.466667a16.861867 16.861867 0 0 1-2.56-9.045333V750.933333h136.533333zM682.666667 358.4h136.533333v392.533333h-136.533333zM819.2 750.933333v73.898667a16.861867 16.861867 0 0 1-2.56 9.045333l-51.2 81.749334a17.220267 17.220267 0 0 1-29.013333 0l-16.384-26.282667-34.816-55.466667a16.861867 16.861867 0 0 1-2.56-9.045333V750.933333h136.533333z" fill="#783E22" /><path d="M204.8 358.4h85.333333v375.466667h-85.333333zM290.133333 733.866667v73.898666a16.861867 16.861867 0 0 1-2.56 9.045334l-45.397333 72.533333-34.816-55.466667a16.861867 16.861867 0 0 1-2.56-9.045333V733.866667h85.333333zM682.666667 358.4h85.333333v375.466667h-85.333333zM768 733.866667v73.898666a16.861867 16.861867 0 0 1-2.56 9.045334l-45.397333 72.533333-34.816-55.466667a16.861867 16.861867 0 0 1-2.56-9.045333V733.866667h85.333333z" fill="#A0522D" /><path d="M733.866667 85.333333v136.533334h-51.2l-17.066667-136.533334c0-37.717333-13.482667-68.266667-51.2-68.266666h51.2a68.266667 68.266667 0 0 1 68.266667 68.266666z" fill="#783E22" /><path d="M682.666667 85.333333v136.533334h-17.066667V119.466667a34.235733 34.235733 0 0 0-34.133333-34.133334H392.533333a34.235733 34.235733 0 0 0-34.133333 34.133334v102.4h-68.266667V85.333333a68.266667 68.266667 0 0 1 68.266667-68.266666h256a68.266667 68.266667 0 0 1 68.266667 68.266666z" fill="#A0522D" /><path d="M938.666667 1024H85.333333a51.2 51.2 0 0 1-51.2-51.2V529.066667a17.066667 17.066667 0 0 1 34.133334 0v443.733333a17.066667 17.066667 0 0 0 17.066666 17.066667h853.333334a17.066667 17.066667 0 0 0 17.066666-17.066667V529.066667a17.066667 17.066667 0 0 1 34.133334 0v443.733333a51.2 51.2 0 0 1-51.2 51.2zM665.6 170.666667H358.4a17.066667 17.066667 0 0 1 0-34.133334h307.2a17.066667 17.066667 0 0 1 0 34.133334z" fill="#000000" /><path d="M204.8 546.133333H34.133333a34.133333 34.133333 0 0 1-34.133333-34.133333V221.866667a85.435733 85.435733 0 0 1 85.333333-85.333334h204.8a17.066667 17.066667 0 0 1 0 34.133334H85.333333a51.2 51.2 0 0 0-51.2 51.2v290.133333h170.666667a17.066667 17.066667 0 0 1 0 34.133333zM989.866667 546.133333H341.333333a17.066667 17.066667 0 0 1 0-34.133333h648.533334V221.866667a51.2 51.2 0 0 0-51.2-51.2H733.866667a17.066667 17.066667 0 0 1 0-34.133334h204.8a85.435733 85.435733 0 0 1 85.333333 85.333334v290.133333a34.133333 34.133333 0 0 1-34.133333 34.133333z" fill="#000000" /><path d="M273.066667 955.733333a17.066667 17.066667 0 0 1-14.455467-8.004266l-68.266667-108.8a17.066667 17.066667 0 0 1-2.6112-9.0624V358.4a17.066667 17.066667 0 0 1 17.066667-17.066667h136.533333a17.066667 17.066667 0 0 1 17.066667 17.066667v471.466667a17.066667 17.066667 0 0 1-2.6112 9.0624l-68.266667 108.8A17.066667 17.066667 0 0 1 273.066667 955.733333z m-51.2-130.781866l51.2 81.595733 51.2-81.595733V375.466667h-102.4v449.4848z" fill="#000000" /><path d="M375.466667 785.066667H170.666667a51.2 51.2 0 0 1-51.2-51.2v-68.266667a51.2 51.2 0 0 1 51.2-51.2h34.133333a17.066667 17.066667 0 0 1 0 34.133333h-34.133333a17.066667 17.066667 0 0 0-17.066667 17.066667v68.266667a17.066667 17.066667 0 0 0 17.066667 17.066666h204.8a17.066667 17.066667 0 0 0 17.066666-17.066666v-68.266667a17.066667 17.066667 0 0 0-17.066666-17.066667h-34.133334a17.066667 17.066667 0 0 1 0-34.133333h34.133334a51.2 51.2 0 0 1 51.2 51.2v68.266667a51.2 51.2 0 0 1-51.2 51.2z" fill="#000000" /><path d="M273.066667 699.733333a17.066667 17.066667 0 0 1-17.066667-17.066666v-51.2a17.066667 17.066667 0 0 1 34.133333 0v51.2a17.066667 17.066667 0 0 1-17.066666 17.066666zM392.533333 375.466667H153.6a17.066667 17.066667 0 0 1 0-34.133334h238.933333a17.066667 17.066667 0 0 1 0 34.133334zM750.933333 955.733333a17.066667 17.066667 0 0 1-14.455466-8.004266l-68.266667-108.8a17.066667 17.066667 0 0 1-2.6112-9.0624V358.4a17.066667 17.066667 0 0 1 17.066667-17.066667h136.533333a17.066667 17.066667 0 0 1 17.066667 17.066667v471.466667a17.066667 17.066667 0 0 1-2.6112 9.0624l-68.266667 108.8A17.066667 17.066667 0 0 1 750.933333 955.733333z m-51.2-130.781866l51.2 81.595733 51.2-81.595733V375.466667h-102.4v449.4848z" fill="#000000" /><path d="M853.333333 785.066667H648.533333a51.2 51.2 0 0 1-51.2-51.2v-68.266667a51.2 51.2 0 0 1 51.2-51.2h34.133334a17.066667 17.066667 0 0 1 0 34.133333h-34.133334a17.066667 17.066667 0 0 0-17.066666 17.066667v68.266667a17.066667 17.066667 0 0 0 17.066666 17.066666h204.8a17.066667 17.066667 0 0 0 17.066667-17.066666v-68.266667a17.066667 17.066667 0 0 0-17.066667-17.066667h-34.133333a17.066667 17.066667 0 0 1 0-34.133333h34.133333a51.2 51.2 0 0 1 51.2 51.2v68.266667a51.2 51.2 0 0 1-51.2 51.2z" fill="#000000" /><path d="M750.933333 699.733333a17.066667 17.066667 0 0 1-17.066666-17.066666v-51.2a17.066667 17.066667 0 0 1 34.133333 0v51.2a17.066667 17.066667 0 0 1-17.066667 17.066666zM870.4 375.466667H631.466667a17.066667 17.066667 0 0 1 0-34.133334h238.933333a17.066667 17.066667 0 0 1 0 34.133334zM187.733333 1024a17.066667 17.066667 0 0 1-17.066666-17.066667v-51.2H136.533333a34.133333 34.133333 0 0 1-34.133333-34.133333v-34.133333H51.2a17.066667 17.066667 0 0 1 0-34.133334h68.266667a17.066667 17.066667 0 0 1 17.066666 17.066667v51.2h51.2a17.066667 17.066667 0 0 1 17.066667 17.066667v68.266666a17.066667 17.066667 0 0 1-17.066667 17.066667zM836.266667 1024a17.066667 17.066667 0 0 1-17.066667-17.066667v-68.266666a17.066667 17.066667 0 0 1 17.066667-17.066667h51.2v-51.2a17.066667 17.066667 0 0 1 17.066666-17.066667h68.266667a17.066667 17.066667 0 0 1 0 34.133334h-51.2v34.133333a34.133333 34.133333 0 0 1-34.133333 34.133333h-34.133334v51.2a17.066667 17.066667 0 0 1-17.066666 17.066667zM733.866667 238.933333h-68.266667a17.066667 17.066667 0 0 1 0-34.133333h51.2V85.333333a51.2 51.2 0 0 0-51.2-51.2H358.4a51.2 51.2 0 0 0-51.2 51.2v119.466667h51.2a17.066667 17.066667 0 0 1 0 34.133333h-68.266667a17.066667 17.066667 0 0 1-17.066666-17.066666V85.333333a85.435733 85.435733 0 0 1 85.333333-85.333333h307.2a85.435733 85.435733 0 0 1 85.333333 85.333333v136.533334a17.066667 17.066667 0 0 1-17.066666 17.066666z" fill="#000000" /><path d="M665.6 238.933333a17.066667 17.066667 0 0 1-17.066667-17.066666V119.466667a17.066667 17.066667 0 0 0-17.066666-17.066667H392.533333a17.066667 17.066667 0 0 0-17.066666 17.066667v102.4a17.066667 17.066667 0 0 1-34.133334 0V119.466667a51.2 51.2 0 0 1 51.2-51.2h238.933334a51.2 51.2 0 0 1 51.2 51.2v102.4a17.066667 17.066667 0 0 1-17.066667 17.066666z" fill="#000000" /><path d="M392.533333 238.933333h-136.533333a17.066667 17.066667 0 0 1 0-34.133333h136.533333a17.066667 17.066667 0 0 1 0 34.133333zM768 238.933333h-136.533333a17.066667 17.066667 0 0 1 0-34.133333h136.533333a17.066667 17.066667 0 0 1 0 34.133333z" fill="#000000" /></svg>